M48
; DRILL file {KiCad 5.1.8-5.1.8} date Mon Dec 14 22:16:26 2020
; FORMAT={-:-/ absolute / inch / decimal}
; #@! TF.CreationDate,2020-12-14T22:16:26-06:00
; #@! TF.GenerationSoftware,Kicad,Pcbnew,5.1.8-5.1.8
FMAT,2
INCH
T1C0.0157
T2C0.0315
T3C0.0354
T4C0.0394
T5C0.0433
T6C0.0472
T7C0.0480
T8C0.0550
T9C0.0559
T10C0.0563
T11C0.1181
T12C0.0550
%
G90
G05
T1
X3.9764Y-3.6909
X3.9764Y-3.9075
X4.0453Y-3.9075
X4.124Y-3.8215
X4.1732Y-4.311
X4.1732Y-4.7343
X4.2126Y-3.2382
X4.2126Y-3.2874
X4.2126Y-3.3366
X4.2126Y-3.3858
X4.2126Y-3.435
X4.2126Y-4.9606
X4.2165Y-3.8976
X4.3002Y-3.3858
X4.3287Y-3.3366
X4.3976Y-3.8622
X4.3976Y-3.9488
X4.4035Y-3.4252
X4.4094Y-3.2382
X4.4094Y-3.2874
X4.4094Y-4.439
X4.4094Y-4.5177
X4.498Y-3.5335
X4.498Y-3.6417
X4.5079Y-4.7835
X4.5472Y-3.5531
X4.6063Y-3.3504
X4.7146Y-3.3366
X4.7283Y-4.9606
X4.8031Y-4.2815
X4.8031Y-4.5472
X4.8228Y-2.8445
X4.8228Y-2.9331
X4.8543Y-3.9488
X4.8976Y-4.5512
X4.9606Y-3.7008
X4.9705Y-4.1732
X4.9705Y-5.315
X4.9803Y-5.4035
X4.9902Y-3.5138
X5.0Y-3.9055
X5.0551Y-4.1417
X5.0984Y-3.875
X5.0984Y-3.937
X5.2067Y-3.061
T2
X5.175Y-5.525
X5.175Y-5.925
X4.3Y-2.7
X4.7Y-2.7
X3.8Y-2.2
X3.8Y-2.6
X4.4Y-2.2
X4.4Y-2.5
X4.5Y-2.2
X4.5Y-2.5
X4.6Y-2.2
X4.6Y-2.5
X4.7Y-2.2
X4.7Y-2.5
X5.3Y-2.2
X5.3Y-2.6
X5.05Y-2.2
X5.05Y-2.6
X4.325Y-4.525
X4.325Y-4.625
X4.325Y-4.725
X4.325Y-4.825
X4.625Y-4.525
X4.625Y-4.625
X4.625Y-4.725
X4.625Y-4.825
X3.925Y-5.525
X3.925Y-5.925
X4.05Y-4.15
X4.05Y-4.55
T3
X4.1Y-4.7
X4.1Y-4.8
T4
X5.375Y-5.525
X5.375Y-5.625
X5.375Y-5.725
X5.375Y-5.825
X3.8Y-4.2
X3.8Y-4.3
X3.8Y-4.4
X3.8Y-4.5
X4.25Y-5.25
X4.35Y-5.25
X4.45Y-5.25
X4.55Y-5.25
X4.65Y-5.25
X4.75Y-5.25
X3.725Y-5.525
X3.725Y-5.625
X3.725Y-5.725
X3.725Y-5.825
X5.225Y-3.25
X5.225Y-3.35
X5.225Y-3.45
X5.225Y-3.55
X5.225Y-3.65
X5.225Y-3.75
X5.225Y-3.85
X5.225Y-3.95
X4.0Y-3.0
X4.1Y-3.0
X4.2Y-3.0
X4.3Y-3.0
X4.4Y-3.0
X4.5Y-3.0
X3.8Y-4.7
X3.8Y-4.8
X3.8Y-4.9
X3.8Y-5.0
X5.125Y-5.0394
X5.125Y-5.1394
X5.125Y-5.2394
X5.125Y-5.3394
X5.225Y-5.0394
X5.225Y-5.1394
X5.225Y-5.2394
X5.225Y-5.3394
X4.25Y-5.075
X4.35Y-5.075
X4.45Y-5.075
X4.55Y-5.075
X3.8Y-3.25
X3.8Y-3.35
X3.8Y-3.45
X3.8Y-3.55
X3.8Y-3.65
X3.8Y-3.75
X3.8Y-3.85
X3.8Y-3.95
T5
X5.05Y-2.8
X5.05Y-2.9772
X5.3059Y-2.8
X5.3059Y-2.9772
T6
X4.1Y-2.2
X4.1Y-2.6
T7
X4.875Y-5.475
X4.225Y-5.475
T8
X4.7639Y-1.7794
X4.8624Y-1.8779
X5.0591Y-1.7795
X5.2558Y-1.8779
X5.3543Y-1.7794
X3.7205Y-1.7715
X3.819Y-1.87
X4.0157Y-1.7716
X4.2124Y-1.87
X4.3109Y-1.7715
T9
X4.875Y-5.597
X4.225Y-5.597
T10
X4.875Y-5.9238
X4.225Y-5.9238
T11
X4.5512Y-1.1339
X4.5512Y-5.9567
T12
X4.8622Y-1.3859
X5.256Y-1.3859
X3.8188Y-1.378
X4.2126Y-1.378
T0
M30
