%TF.GenerationSoftware,KiCad,Pcbnew,5.1.8-5.1.8*%
%TF.CreationDate,2020-12-14T22:16:24-06:00*%
%TF.ProjectId,Mini2CV,4d696e69-3243-4562-9e6b-696361645f70,rev?*%
%TF.SameCoordinates,Original*%
%TF.FileFunction,Legend,Top*%
%TF.FilePolarity,Positive*%
%FSLAX46Y46*%
G04 Gerber Fmt 4.6, Leading zero omitted, Abs format (unit mm)*
G04 Created by KiCad (PCBNEW 5.1.8-5.1.8) date 2020-12-14 22:16:24*
%MOMM*%
%LPD*%
G01*
G04 APERTURE LIST*
%ADD10C,0.150000*%
%ADD11C,0.200000*%
%ADD12C,0.500000*%
%ADD13C,0.120000*%
%ADD14C,0.304800*%
G04 APERTURE END LIST*
D10*
X137952380Y-74952380D02*
X137476190Y-75285714D01*
X137952380Y-75523809D02*
X136952380Y-75523809D01*
X136952380Y-75142857D01*
X137000000Y-75047619D01*
X137047619Y-75000000D01*
X137142857Y-74952380D01*
X137285714Y-74952380D01*
X137380952Y-75000000D01*
X137428571Y-75047619D01*
X137476190Y-75142857D01*
X137476190Y-75523809D01*
X137428571Y-74523809D02*
X137428571Y-74190476D01*
X137952380Y-74047619D02*
X137952380Y-74523809D01*
X136952380Y-74523809D01*
X136952380Y-74047619D01*
X137904761Y-73666666D02*
X137952380Y-73523809D01*
X137952380Y-73285714D01*
X137904761Y-73190476D01*
X137857142Y-73142857D01*
X137761904Y-73095238D01*
X137666666Y-73095238D01*
X137571428Y-73142857D01*
X137523809Y-73190476D01*
X137476190Y-73285714D01*
X137428571Y-73476190D01*
X137380952Y-73571428D01*
X137333333Y-73619047D01*
X137238095Y-73666666D01*
X137142857Y-73666666D01*
X137047619Y-73619047D01*
X137000000Y-73571428D01*
X136952380Y-73476190D01*
X136952380Y-73238095D01*
X137000000Y-73095238D01*
X137428571Y-72666666D02*
X137428571Y-72333333D01*
X137952380Y-72190476D02*
X137952380Y-72666666D01*
X136952380Y-72666666D01*
X136952380Y-72190476D01*
X136952380Y-71904761D02*
X136952380Y-71333333D01*
X137952380Y-71619047D02*
X136952380Y-71619047D01*
X135595238Y-150500000D02*
X135500000Y-150452380D01*
X135357142Y-150452380D01*
X135214285Y-150500000D01*
X135119047Y-150595238D01*
X135071428Y-150690476D01*
X135023809Y-150880952D01*
X135023809Y-151023809D01*
X135071428Y-151214285D01*
X135119047Y-151309523D01*
X135214285Y-151404761D01*
X135357142Y-151452380D01*
X135452380Y-151452380D01*
X135595238Y-151404761D01*
X135642857Y-151357142D01*
X135642857Y-151023809D01*
X135452380Y-151023809D01*
X136500000Y-151452380D02*
X136500000Y-150928571D01*
X136452380Y-150833333D01*
X136357142Y-150785714D01*
X136166666Y-150785714D01*
X136071428Y-150833333D01*
X136500000Y-151404761D02*
X136404761Y-151452380D01*
X136166666Y-151452380D01*
X136071428Y-151404761D01*
X136023809Y-151309523D01*
X136023809Y-151214285D01*
X136071428Y-151119047D01*
X136166666Y-151071428D01*
X136404761Y-151071428D01*
X136500000Y-151023809D01*
X136833333Y-150785714D02*
X137214285Y-150785714D01*
X136976190Y-150452380D02*
X136976190Y-151309523D01*
X137023809Y-151404761D01*
X137119047Y-151452380D01*
X137214285Y-151452380D01*
X137928571Y-151404761D02*
X137833333Y-151452380D01*
X137642857Y-151452380D01*
X137547619Y-151404761D01*
X137500000Y-151309523D01*
X137500000Y-150928571D01*
X137547619Y-150833333D01*
X137642857Y-150785714D01*
X137833333Y-150785714D01*
X137928571Y-150833333D01*
X137976190Y-150928571D01*
X137976190Y-151023809D01*
X137500000Y-151119047D01*
X94380952Y-151357142D02*
X94333333Y-151404761D01*
X94190476Y-151452380D01*
X94095238Y-151452380D01*
X93952380Y-151404761D01*
X93857142Y-151309523D01*
X93809523Y-151214285D01*
X93761904Y-151023809D01*
X93761904Y-150880952D01*
X93809523Y-150690476D01*
X93857142Y-150595238D01*
X93952380Y-150500000D01*
X94095238Y-150452380D01*
X94190476Y-150452380D01*
X94333333Y-150500000D01*
X94380952Y-150547619D01*
X94666666Y-150452380D02*
X95000000Y-151452380D01*
X95333333Y-150452380D01*
X136452380Y-134809523D02*
X135452380Y-134809523D01*
X135452380Y-134428571D01*
X135500000Y-134333333D01*
X135547619Y-134285714D01*
X135642857Y-134238095D01*
X135785714Y-134238095D01*
X135880952Y-134285714D01*
X135928571Y-134333333D01*
X135976190Y-134428571D01*
X135976190Y-134809523D01*
X135452380Y-133619047D02*
X135452380Y-133428571D01*
X135500000Y-133333333D01*
X135595238Y-133238095D01*
X135785714Y-133190476D01*
X136119047Y-133190476D01*
X136309523Y-133238095D01*
X136404761Y-133333333D01*
X136452380Y-133428571D01*
X136452380Y-133619047D01*
X136404761Y-133714285D01*
X136309523Y-133809523D01*
X136119047Y-133857142D01*
X135785714Y-133857142D01*
X135595238Y-133809523D01*
X135500000Y-133714285D01*
X135452380Y-133619047D01*
X135452380Y-132857142D02*
X136452380Y-132619047D01*
X135738095Y-132428571D01*
X136452380Y-132238095D01*
X135452380Y-132000000D01*
X135928571Y-131619047D02*
X135928571Y-131285714D01*
X136452380Y-131142857D02*
X136452380Y-131619047D01*
X135452380Y-131619047D01*
X135452380Y-131142857D01*
X136452380Y-130142857D02*
X135976190Y-130476190D01*
X136452380Y-130714285D02*
X135452380Y-130714285D01*
X135452380Y-130333333D01*
X135500000Y-130238095D01*
X135547619Y-130190476D01*
X135642857Y-130142857D01*
X135785714Y-130142857D01*
X135880952Y-130190476D01*
X135928571Y-130238095D01*
X135976190Y-130333333D01*
X135976190Y-130714285D01*
X109738095Y-135000000D02*
X109642857Y-134952380D01*
X109500000Y-134952380D01*
X109357142Y-135000000D01*
X109261904Y-135095238D01*
X109214285Y-135190476D01*
X109166666Y-135380952D01*
X109166666Y-135523809D01*
X109214285Y-135714285D01*
X109261904Y-135809523D01*
X109357142Y-135904761D01*
X109500000Y-135952380D01*
X109595238Y-135952380D01*
X109738095Y-135904761D01*
X109785714Y-135857142D01*
X109785714Y-135523809D01*
X109595238Y-135523809D01*
X110214285Y-135952380D02*
X110214285Y-134952380D01*
X110785714Y-135952380D01*
X110785714Y-134952380D01*
X111261904Y-135952380D02*
X111261904Y-134952380D01*
X111500000Y-134952380D01*
X111642857Y-135000000D01*
X111738095Y-135095238D01*
X111785714Y-135190476D01*
X111833333Y-135380952D01*
X111833333Y-135523809D01*
X111785714Y-135714285D01*
X111738095Y-135809523D01*
X111642857Y-135904761D01*
X111500000Y-135952380D01*
X111261904Y-135952380D01*
X109285714Y-126571428D02*
X110047619Y-126571428D01*
X109666666Y-126952380D02*
X109666666Y-126190476D01*
X110428571Y-125952380D02*
X111047619Y-125952380D01*
X110714285Y-126333333D01*
X110857142Y-126333333D01*
X110952380Y-126380952D01*
X111000000Y-126428571D01*
X111047619Y-126523809D01*
X111047619Y-126761904D01*
X111000000Y-126857142D01*
X110952380Y-126904761D01*
X110857142Y-126952380D01*
X110571428Y-126952380D01*
X110476190Y-126904761D01*
X110428571Y-126857142D01*
X111380952Y-126285714D02*
X111619047Y-126952380D01*
X111857142Y-126285714D01*
X112142857Y-125952380D02*
X112761904Y-125952380D01*
X112428571Y-126333333D01*
X112571428Y-126333333D01*
X112666666Y-126380952D01*
X112714285Y-126428571D01*
X112761904Y-126523809D01*
X112761904Y-126761904D01*
X112714285Y-126857142D01*
X112666666Y-126904761D01*
X112571428Y-126952380D01*
X112285714Y-126952380D01*
X112190476Y-126904761D01*
X112142857Y-126857142D01*
X93428571Y-121238095D02*
X93428571Y-122000000D01*
X93047619Y-123000000D02*
X93047619Y-122428571D01*
X93047619Y-122714285D02*
X94047619Y-122714285D01*
X93904761Y-122619047D01*
X93809523Y-122523809D01*
X93761904Y-122428571D01*
X93952380Y-123380952D02*
X94000000Y-123428571D01*
X94047619Y-123523809D01*
X94047619Y-123761904D01*
X94000000Y-123857142D01*
X93952380Y-123904761D01*
X93857142Y-123952380D01*
X93761904Y-123952380D01*
X93619047Y-123904761D01*
X93047619Y-123333333D01*
X93047619Y-123952380D01*
X94047619Y-124238095D02*
X93047619Y-124571428D01*
X94047619Y-124904761D01*
X93428571Y-108738095D02*
X93428571Y-109500000D01*
X93047619Y-109119047D02*
X93809523Y-109119047D01*
X93047619Y-110500000D02*
X93047619Y-109928571D01*
X93047619Y-110214285D02*
X94047619Y-110214285D01*
X93904761Y-110119047D01*
X93809523Y-110023809D01*
X93761904Y-109928571D01*
X93952380Y-110880952D02*
X94000000Y-110928571D01*
X94047619Y-111023809D01*
X94047619Y-111261904D01*
X94000000Y-111357142D01*
X93952380Y-111404761D01*
X93857142Y-111452380D01*
X93761904Y-111452380D01*
X93619047Y-111404761D01*
X93047619Y-110833333D01*
X93047619Y-111452380D01*
X94047619Y-111738095D02*
X93047619Y-112071428D01*
X94047619Y-112404761D01*
D11*
X114214285Y-137278571D02*
X113071428Y-137707142D01*
X114214285Y-138135714D01*
X114928571Y-137707142D02*
X116071428Y-137707142D01*
X116785714Y-137707142D02*
X117928571Y-137707142D01*
X115321428Y-140585714D02*
X115250000Y-140657142D01*
X115035714Y-140728571D01*
X114892857Y-140728571D01*
X114678571Y-140657142D01*
X114535714Y-140514285D01*
X114464285Y-140371428D01*
X114392857Y-140085714D01*
X114392857Y-139871428D01*
X114464285Y-139585714D01*
X114535714Y-139442857D01*
X114678571Y-139300000D01*
X114892857Y-139228571D01*
X115035714Y-139228571D01*
X115250000Y-139300000D01*
X115321428Y-139371428D01*
X115750000Y-139228571D02*
X116250000Y-140728571D01*
X116750000Y-139228571D01*
X114142857Y-144200000D02*
X114000000Y-144128571D01*
X113785714Y-144128571D01*
X113571428Y-144200000D01*
X113428571Y-144342857D01*
X113357142Y-144485714D01*
X113285714Y-144771428D01*
X113285714Y-144985714D01*
X113357142Y-145271428D01*
X113428571Y-145414285D01*
X113571428Y-145557142D01*
X113785714Y-145628571D01*
X113928571Y-145628571D01*
X114142857Y-145557142D01*
X114214285Y-145485714D01*
X114214285Y-144985714D01*
X113928571Y-144985714D01*
X115500000Y-145628571D02*
X115500000Y-144842857D01*
X115428571Y-144700000D01*
X115285714Y-144628571D01*
X115000000Y-144628571D01*
X114857142Y-144700000D01*
X115500000Y-145557142D02*
X115357142Y-145628571D01*
X115000000Y-145628571D01*
X114857142Y-145557142D01*
X114785714Y-145414285D01*
X114785714Y-145271428D01*
X114857142Y-145128571D01*
X115000000Y-145057142D01*
X115357142Y-145057142D01*
X115500000Y-144985714D01*
X116000000Y-144628571D02*
X116571428Y-144628571D01*
X116214285Y-144128571D02*
X116214285Y-145414285D01*
X116285714Y-145557142D01*
X116428571Y-145628571D01*
X116571428Y-145628571D01*
X117642857Y-145557142D02*
X117500000Y-145628571D01*
X117214285Y-145628571D01*
X117071428Y-145557142D01*
X117000000Y-145414285D01*
X117000000Y-144842857D01*
X117071428Y-144700000D01*
X117214285Y-144628571D01*
X117500000Y-144628571D01*
X117642857Y-144700000D01*
X117714285Y-144842857D01*
X117714285Y-144985714D01*
X117000000Y-145128571D01*
X113071428Y-147507142D02*
X114214285Y-147507142D01*
X114928571Y-147507142D02*
X116071428Y-147507142D01*
X116785714Y-147078571D02*
X117928571Y-147507142D01*
X116785714Y-147935714D01*
D12*
X122500000Y-28357142D02*
X124214285Y-28357142D01*
X123357142Y-31357142D02*
X123357142Y-28357142D01*
X125214285Y-31357142D02*
X125214285Y-28357142D01*
X125214285Y-29785714D02*
X126928571Y-29785714D01*
X126928571Y-31357142D02*
X126928571Y-28357142D01*
X130071428Y-31357142D02*
X129071428Y-29928571D01*
X128357142Y-31357142D02*
X128357142Y-28357142D01*
X129500000Y-28357142D01*
X129785714Y-28500000D01*
X129928571Y-28642857D01*
X130071428Y-28928571D01*
X130071428Y-29357142D01*
X129928571Y-29642857D01*
X129785714Y-29785714D01*
X129500000Y-29928571D01*
X128357142Y-29928571D01*
X131357142Y-28357142D02*
X131357142Y-30785714D01*
X131500000Y-31071428D01*
X131642857Y-31214285D01*
X131928571Y-31357142D01*
X132500000Y-31357142D01*
X132785714Y-31214285D01*
X132928571Y-31071428D01*
X133071428Y-30785714D01*
X133071428Y-28357142D01*
X100428571Y-31357142D02*
X100428571Y-28357142D01*
X101857142Y-31357142D02*
X101857142Y-28357142D01*
X103571428Y-31357142D01*
X103571428Y-28357142D01*
D10*
X98327380Y-72642857D02*
X97327380Y-72642857D01*
X98327380Y-72071428D01*
X97327380Y-72071428D01*
X98327380Y-71023809D02*
X97851190Y-71357142D01*
X98327380Y-71595238D02*
X97327380Y-71595238D01*
X97327380Y-71214285D01*
X97375000Y-71119047D01*
X97422619Y-71071428D01*
X97517857Y-71023809D01*
X97660714Y-71023809D01*
X97755952Y-71071428D01*
X97803571Y-71119047D01*
X97851190Y-71214285D01*
X97851190Y-71595238D01*
X98279761Y-70642857D02*
X98327380Y-70500000D01*
X98327380Y-70261904D01*
X98279761Y-70166666D01*
X98232142Y-70119047D01*
X98136904Y-70071428D01*
X98041666Y-70071428D01*
X97946428Y-70119047D01*
X97898809Y-70166666D01*
X97851190Y-70261904D01*
X97803571Y-70452380D01*
X97755952Y-70547619D01*
X97708333Y-70595238D01*
X97613095Y-70642857D01*
X97517857Y-70642857D01*
X97422619Y-70595238D01*
X97375000Y-70547619D01*
X97327380Y-70452380D01*
X97327380Y-70214285D01*
X97375000Y-70071428D01*
X97327380Y-69785714D02*
X97327380Y-69214285D01*
X98327380Y-69500000D02*
X97327380Y-69500000D01*
X99929761Y-73261904D02*
X99977380Y-73119047D01*
X99977380Y-72880952D01*
X99929761Y-72785714D01*
X99882142Y-72738095D01*
X99786904Y-72690476D01*
X99691666Y-72690476D01*
X99596428Y-72738095D01*
X99548809Y-72785714D01*
X99501190Y-72880952D01*
X99453571Y-73071428D01*
X99405952Y-73166666D01*
X99358333Y-73214285D01*
X99263095Y-73261904D01*
X99167857Y-73261904D01*
X99072619Y-73214285D01*
X99025000Y-73166666D01*
X98977380Y-73071428D01*
X98977380Y-72833333D01*
X99025000Y-72690476D01*
X98977380Y-72357142D02*
X99977380Y-72119047D01*
X99263095Y-71928571D01*
X99977380Y-71738095D01*
X98977380Y-71500000D01*
X99882142Y-70547619D02*
X99929761Y-70595238D01*
X99977380Y-70738095D01*
X99977380Y-70833333D01*
X99929761Y-70976190D01*
X99834523Y-71071428D01*
X99739285Y-71119047D01*
X99548809Y-71166666D01*
X99405952Y-71166666D01*
X99215476Y-71119047D01*
X99120238Y-71071428D01*
X99025000Y-70976190D01*
X98977380Y-70833333D01*
X98977380Y-70738095D01*
X99025000Y-70595238D01*
X99072619Y-70547619D01*
X99977380Y-69642857D02*
X99977380Y-70119047D01*
X98977380Y-70119047D01*
X99977380Y-69309523D02*
X98977380Y-69309523D01*
X99977380Y-68738095D02*
X99405952Y-69166666D01*
X98977380Y-68738095D02*
X99548809Y-69309523D01*
X101579761Y-73119047D02*
X101627380Y-72976190D01*
X101627380Y-72738095D01*
X101579761Y-72642857D01*
X101532142Y-72595238D01*
X101436904Y-72547619D01*
X101341666Y-72547619D01*
X101246428Y-72595238D01*
X101198809Y-72642857D01*
X101151190Y-72738095D01*
X101103571Y-72928571D01*
X101055952Y-73023809D01*
X101008333Y-73071428D01*
X100913095Y-73119047D01*
X100817857Y-73119047D01*
X100722619Y-73071428D01*
X100675000Y-73023809D01*
X100627380Y-72928571D01*
X100627380Y-72690476D01*
X100675000Y-72547619D01*
X100627380Y-72214285D02*
X101627380Y-71976190D01*
X100913095Y-71785714D01*
X101627380Y-71595238D01*
X100627380Y-71357142D01*
X101627380Y-70976190D02*
X100627380Y-70976190D01*
X100627380Y-70738095D01*
X100675000Y-70595238D01*
X100770238Y-70500000D01*
X100865476Y-70452380D01*
X101055952Y-70404761D01*
X101198809Y-70404761D01*
X101389285Y-70452380D01*
X101484523Y-70500000D01*
X101579761Y-70595238D01*
X101627380Y-70738095D01*
X101627380Y-70976190D01*
X101627380Y-69976190D02*
X100627380Y-69976190D01*
X100627380Y-69309523D02*
X100627380Y-69119047D01*
X100675000Y-69023809D01*
X100770238Y-68928571D01*
X100960714Y-68880952D01*
X101294047Y-68880952D01*
X101484523Y-68928571D01*
X101579761Y-69023809D01*
X101627380Y-69119047D01*
X101627380Y-69309523D01*
X101579761Y-69404761D01*
X101484523Y-69500000D01*
X101294047Y-69547619D01*
X100960714Y-69547619D01*
X100770238Y-69500000D01*
X100675000Y-69404761D01*
X100627380Y-69309523D01*
X102325000Y-71761904D02*
X102277380Y-71857142D01*
X102277380Y-72000000D01*
X102325000Y-72142857D01*
X102420238Y-72238095D01*
X102515476Y-72285714D01*
X102705952Y-72333333D01*
X102848809Y-72333333D01*
X103039285Y-72285714D01*
X103134523Y-72238095D01*
X103229761Y-72142857D01*
X103277380Y-72000000D01*
X103277380Y-71904761D01*
X103229761Y-71761904D01*
X103182142Y-71714285D01*
X102848809Y-71714285D01*
X102848809Y-71904761D01*
X103277380Y-71285714D02*
X102277380Y-71285714D01*
X103277380Y-70714285D01*
X102277380Y-70714285D01*
X103277380Y-70238095D02*
X102277380Y-70238095D01*
X102277380Y-70000000D01*
X102325000Y-69857142D01*
X102420238Y-69761904D01*
X102515476Y-69714285D01*
X102705952Y-69666666D01*
X102848809Y-69666666D01*
X103039285Y-69714285D01*
X103134523Y-69761904D01*
X103229761Y-69857142D01*
X103277380Y-70000000D01*
X103277380Y-70238095D01*
X104927380Y-71166666D02*
X104451190Y-71500000D01*
X104927380Y-71738095D02*
X103927380Y-71738095D01*
X103927380Y-71357142D01*
X103975000Y-71261904D01*
X104022619Y-71214285D01*
X104117857Y-71166666D01*
X104260714Y-71166666D01*
X104355952Y-71214285D01*
X104403571Y-71261904D01*
X104451190Y-71357142D01*
X104451190Y-71738095D01*
X103927380Y-70833333D02*
X104927380Y-70166666D01*
X103927380Y-70166666D02*
X104927380Y-70833333D01*
X105577380Y-71761904D02*
X105577380Y-71190476D01*
X106577380Y-71476190D02*
X105577380Y-71476190D01*
X105577380Y-70952380D02*
X106577380Y-70285714D01*
X105577380Y-70285714D02*
X106577380Y-70952380D01*
D13*
%TO.C,C1*%
X123725000Y-72651252D02*
X123725000Y-72128748D01*
X125195000Y-72651252D02*
X125195000Y-72128748D01*
%TO.C,C2*%
X108443752Y-99595000D02*
X107921248Y-99595000D01*
X108443752Y-101065000D02*
X107921248Y-101065000D01*
%TO.C,C3*%
X120621248Y-99595000D02*
X121143752Y-99595000D01*
X120621248Y-101065000D02*
X121143752Y-101065000D01*
%TO.C,C4*%
X123725000Y-123161248D02*
X123725000Y-123683752D01*
X125195000Y-123161248D02*
X125195000Y-123683752D01*
%TO.C,C5*%
X123725000Y-118603752D02*
X123725000Y-118081248D01*
X125195000Y-118603752D02*
X125195000Y-118081248D01*
%TO.C,C6*%
X114271248Y-85825000D02*
X114793752Y-85825000D01*
X114271248Y-84355000D02*
X114793752Y-84355000D01*
%TO.C,C7*%
X125195000Y-109481252D02*
X125195000Y-108958748D01*
X123725000Y-109481252D02*
X123725000Y-108958748D01*
%TO.C,C8*%
X114328752Y-101065000D02*
X113806248Y-101065000D01*
X114328752Y-99595000D02*
X113806248Y-99595000D01*
%TO.C,C9*%
X125701248Y-98525000D02*
X126223752Y-98525000D01*
X125701248Y-97055000D02*
X126223752Y-97055000D01*
%TO.C,C10*%
X125701248Y-94515000D02*
X126223752Y-94515000D01*
X125701248Y-95985000D02*
X126223752Y-95985000D01*
%TO.C,D1*%
X105685000Y-118090000D02*
X102595000Y-118090000D01*
X106640000Y-120650000D02*
G75*
G03*
X106640000Y-120650000I-2500000J0D01*
G01*
X104139538Y-123640000D02*
G75*
G03*
X105684830Y-118090000I462J2990000D01*
G01*
X104140462Y-123640000D02*
G75*
G02*
X102595170Y-118090000I-462J2990000D01*
G01*
%TO.C,D2*%
X102220000Y-63740000D02*
X106060000Y-63740000D01*
X102220000Y-63500000D02*
X106060000Y-63500000D01*
X102220000Y-63620000D02*
X106060000Y-63620000D01*
X106060000Y-57040000D02*
X105580000Y-57040000D01*
X106060000Y-64880000D02*
X106060000Y-57040000D01*
X105580000Y-64880000D02*
X106060000Y-64880000D01*
X102220000Y-57040000D02*
X102700000Y-57040000D01*
X102220000Y-64880000D02*
X102220000Y-57040000D01*
X102700000Y-64880000D02*
X102220000Y-64880000D01*
%TO.C,FB1*%
X125713748Y-93420000D02*
X126236252Y-93420000D01*
X125713748Y-92000000D02*
X126236252Y-92000000D01*
%TO.C,J1*%
X121980000Y-134680000D02*
X121980000Y-132020000D01*
X109220000Y-134680000D02*
X121980000Y-134680000D01*
X109220000Y-132020000D02*
X121980000Y-132020000D01*
X109220000Y-134680000D02*
X109220000Y-132020000D01*
X107950000Y-134680000D02*
X106620000Y-134680000D01*
X106620000Y-134680000D02*
X106620000Y-133350000D01*
%TO.C,J3*%
X95190000Y-105350000D02*
X96520000Y-105350000D01*
X95190000Y-106680000D02*
X95190000Y-105350000D01*
X95190000Y-107950000D02*
X97850000Y-107950000D01*
X97850000Y-107950000D02*
X97850000Y-115630000D01*
X95190000Y-107950000D02*
X95190000Y-115630000D01*
X95190000Y-115630000D02*
X97850000Y-115630000D01*
%TO.C,J4*%
X95190000Y-128330000D02*
X97850000Y-128330000D01*
X95190000Y-120650000D02*
X95190000Y-128330000D01*
X97850000Y-120650000D02*
X97850000Y-128330000D01*
X95190000Y-120650000D02*
X97850000Y-120650000D01*
X95190000Y-119380000D02*
X95190000Y-118050000D01*
X95190000Y-118050000D02*
X96520000Y-118050000D01*
%TO.C,J5*%
X95190000Y-81220000D02*
X96520000Y-81220000D01*
X95190000Y-82550000D02*
X95190000Y-81220000D01*
X95190000Y-83820000D02*
X97850000Y-83820000D01*
X97850000Y-83820000D02*
X97850000Y-101660000D01*
X95190000Y-83820000D02*
X95190000Y-101660000D01*
X95190000Y-101660000D02*
X97850000Y-101660000D01*
%TO.C,J6*%
X131385000Y-101660000D02*
X134045000Y-101660000D01*
X131385000Y-83820000D02*
X131385000Y-101660000D01*
X134045000Y-83820000D02*
X134045000Y-101660000D01*
X131385000Y-83820000D02*
X134045000Y-83820000D01*
X131385000Y-82550000D02*
X131385000Y-81220000D01*
X131385000Y-81220000D02*
X132715000Y-81220000D01*
%TO.C,J7*%
X100270000Y-77530000D02*
X100270000Y-76200000D01*
X101600000Y-77530000D02*
X100270000Y-77530000D01*
X102870000Y-77530000D02*
X102870000Y-74870000D01*
X102870000Y-74870000D02*
X115630000Y-74870000D01*
X102870000Y-77530000D02*
X115630000Y-77530000D01*
X115630000Y-77530000D02*
X115630000Y-74870000D01*
%TO.C,J8*%
X106620000Y-130235000D02*
X106620000Y-128905000D01*
X107950000Y-130235000D02*
X106620000Y-130235000D01*
X109220000Y-130235000D02*
X109220000Y-127575000D01*
X109220000Y-127575000D02*
X116900000Y-127575000D01*
X109220000Y-130235000D02*
X116900000Y-130235000D01*
X116900000Y-130235000D02*
X116900000Y-127575000D01*
%TO.C,J9*%
X119325000Y-141045000D02*
X119325000Y-151545000D01*
X128325000Y-141045000D02*
X128325000Y-151545000D01*
X128325000Y-151545000D02*
X124325000Y-151545000D01*
X123325000Y-151545000D02*
X119325000Y-151545000D01*
X128325000Y-141045000D02*
X124175000Y-141045000D01*
X123475000Y-141045000D02*
X119325000Y-141045000D01*
X125625000Y-145545000D02*
G75*
G03*
X125625000Y-145545000I-1800000J0D01*
G01*
X122765000Y-138065000D02*
X122765000Y-138865000D01*
X122765000Y-138065000D02*
X123625000Y-138065000D01*
%TO.C,J10*%
X135195000Y-149285000D02*
X137855000Y-149285000D01*
X135195000Y-141605000D02*
X135195000Y-149285000D01*
X137855000Y-141605000D02*
X137855000Y-149285000D01*
X135195000Y-141605000D02*
X137855000Y-141605000D01*
X135195000Y-140335000D02*
X135195000Y-139005000D01*
X135195000Y-139005000D02*
X136525000Y-139005000D01*
D14*
%TO.C,J11*%
X110999220Y-33249700D02*
X91499640Y-33249700D01*
X93000780Y-33000780D02*
X110999220Y-33000780D01*
X112500360Y-32749320D02*
X93000780Y-32749320D01*
X110999220Y-50999220D02*
X110999220Y-33999000D01*
X110999220Y-50999220D02*
X110498840Y-51499600D01*
X110498840Y-51499600D02*
X107999480Y-51499600D01*
X107999480Y-51499600D02*
X107499100Y-50999220D01*
X107499100Y-50999220D02*
X107499100Y-49000240D01*
X107499100Y-49000240D02*
X103998980Y-49000240D01*
X93000780Y-50999220D02*
X93000780Y-33999000D01*
X93000780Y-50999220D02*
X93501160Y-51499600D01*
X93501160Y-51499600D02*
X95500140Y-51499600D01*
X95500140Y-51499600D02*
X96000520Y-51499600D01*
X96000520Y-51499600D02*
X96500900Y-50999220D01*
X96500900Y-50999220D02*
X96500900Y-49000240D01*
X96500900Y-49000240D02*
X100001020Y-49000240D01*
X103501140Y-51499600D02*
X103998980Y-50999220D01*
X103998980Y-50999220D02*
X103998980Y-49000240D01*
X103501140Y-51499600D02*
X100498860Y-51499600D01*
X100498860Y-51499600D02*
X100001020Y-50999220D01*
X100001020Y-50999220D02*
X100001020Y-49000240D01*
X91499640Y-33000780D02*
X93000780Y-33000780D01*
X93000780Y-33000780D02*
X93000780Y-32500400D01*
X93000780Y-32500400D02*
X112500360Y-32500400D01*
X112500360Y-33000780D02*
X110999220Y-33000780D01*
X110999220Y-33000780D02*
X110999220Y-33501160D01*
X110999220Y-33501160D02*
X91499640Y-33501160D01*
X93000780Y-33999000D02*
X93501160Y-33999000D01*
X110999220Y-33999000D02*
X110498840Y-33999000D01*
X93501160Y-33501160D02*
X93501160Y-33999000D01*
X110498840Y-33999000D02*
X110498840Y-33501160D01*
X112500360Y-32500400D02*
X112500360Y-33000780D01*
X91499640Y-33501160D02*
X91499640Y-33000780D01*
D13*
%TO.C,J12*%
X106255000Y-138065000D02*
X107115000Y-138065000D01*
X106255000Y-138065000D02*
X106255000Y-138865000D01*
X109115000Y-145545000D02*
G75*
G03*
X109115000Y-145545000I-1800000J0D01*
G01*
X106965000Y-141045000D02*
X102815000Y-141045000D01*
X111815000Y-141045000D02*
X107665000Y-141045000D01*
X106815000Y-151545000D02*
X102815000Y-151545000D01*
X111815000Y-151545000D02*
X107815000Y-151545000D01*
X111815000Y-141045000D02*
X111815000Y-151545000D01*
X102815000Y-141045000D02*
X102815000Y-151545000D01*
%TO.C,J13*%
X93285000Y-139005000D02*
X94615000Y-139005000D01*
X93285000Y-140335000D02*
X93285000Y-139005000D01*
X93285000Y-141605000D02*
X95945000Y-141605000D01*
X95945000Y-141605000D02*
X95945000Y-149285000D01*
X93285000Y-141605000D02*
X93285000Y-149285000D01*
X93285000Y-149285000D02*
X95945000Y-149285000D01*
D14*
%TO.C,J14*%
X117999640Y-33701160D02*
X117999640Y-33200780D01*
X139000360Y-32700400D02*
X139000360Y-33200780D01*
X136998840Y-34199000D02*
X136998840Y-33701160D01*
X120001160Y-33701160D02*
X120001160Y-34199000D01*
X137499220Y-34199000D02*
X136998840Y-34199000D01*
X119500780Y-34199000D02*
X120001160Y-34199000D01*
X137499220Y-33701160D02*
X117999640Y-33701160D01*
X137499220Y-33200780D02*
X137499220Y-33701160D01*
X139000360Y-33200780D02*
X137499220Y-33200780D01*
X119500780Y-32700400D02*
X139000360Y-32700400D01*
X119500780Y-33200780D02*
X119500780Y-32700400D01*
X117999640Y-33200780D02*
X119500780Y-33200780D01*
X126501020Y-51199220D02*
X126501020Y-49200240D01*
X126998860Y-51699600D02*
X126501020Y-51199220D01*
X130001140Y-51699600D02*
X126998860Y-51699600D01*
X130498980Y-51199220D02*
X130498980Y-49200240D01*
X130001140Y-51699600D02*
X130498980Y-51199220D01*
X123000900Y-49200240D02*
X126501020Y-49200240D01*
X123000900Y-51199220D02*
X123000900Y-49200240D01*
X122500520Y-51699600D02*
X123000900Y-51199220D01*
X122000140Y-51699600D02*
X122500520Y-51699600D01*
X120001160Y-51699600D02*
X122000140Y-51699600D01*
X119500780Y-51199220D02*
X120001160Y-51699600D01*
X119500780Y-51199220D02*
X119500780Y-34199000D01*
X133999100Y-49200240D02*
X130498980Y-49200240D01*
X133999100Y-51199220D02*
X133999100Y-49200240D01*
X134499480Y-51699600D02*
X133999100Y-51199220D01*
X136998840Y-51699600D02*
X134499480Y-51699600D01*
X137499220Y-51199220D02*
X136998840Y-51699600D01*
X137499220Y-51199220D02*
X137499220Y-34199000D01*
X139000360Y-32949320D02*
X119500780Y-32949320D01*
X119500780Y-33200780D02*
X137499220Y-33200780D01*
X137499220Y-33449700D02*
X117999640Y-33449700D01*
D13*
%TO.C,J15*%
X132715000Y-126670000D02*
X134045000Y-126670000D01*
X134045000Y-126670000D02*
X134045000Y-128000000D01*
X131445000Y-126670000D02*
X131445000Y-129270000D01*
X131445000Y-129270000D02*
X134045000Y-129270000D01*
X134045000Y-129270000D02*
X134045000Y-136950000D01*
X128845000Y-136950000D02*
X134045000Y-136950000D01*
X128845000Y-126670000D02*
X128845000Y-136950000D01*
X128845000Y-126670000D02*
X131445000Y-126670000D01*
%TO.C,R1*%
X102870000Y-114530000D02*
X102870000Y-113760000D01*
X102870000Y-106450000D02*
X102870000Y-107220000D01*
X104240000Y-113760000D02*
X104240000Y-107220000D01*
X101500000Y-113760000D02*
X104240000Y-113760000D01*
X101500000Y-107220000D02*
X101500000Y-113760000D01*
X104240000Y-107220000D02*
X101500000Y-107220000D01*
%TO.C,R2*%
X131445000Y-149455000D02*
X131445000Y-148685000D01*
X131445000Y-141375000D02*
X131445000Y-142145000D01*
X132815000Y-148685000D02*
X132815000Y-142145000D01*
X130075000Y-148685000D02*
X132815000Y-148685000D01*
X130075000Y-142145000D02*
X130075000Y-148685000D01*
X132815000Y-142145000D02*
X130075000Y-142145000D01*
%TO.C,R3*%
X112987064Y-109755000D02*
X112532936Y-109755000D01*
X112987064Y-111225000D02*
X112532936Y-111225000D01*
%TO.C,R4*%
X97890000Y-57690000D02*
X95150000Y-57690000D01*
X95150000Y-57690000D02*
X95150000Y-64230000D01*
X95150000Y-64230000D02*
X97890000Y-64230000D01*
X97890000Y-64230000D02*
X97890000Y-57690000D01*
X96520000Y-56920000D02*
X96520000Y-57690000D01*
X96520000Y-65000000D02*
X96520000Y-64230000D01*
%TO.C,R5*%
X121015000Y-125227064D02*
X121015000Y-124772936D01*
X122485000Y-125227064D02*
X122485000Y-124772936D01*
%TO.C,R6*%
X122485000Y-120977064D02*
X122485000Y-120522936D01*
X121015000Y-120977064D02*
X121015000Y-120522936D01*
%TO.C,R7*%
X101065000Y-142145000D02*
X98325000Y-142145000D01*
X98325000Y-142145000D02*
X98325000Y-148685000D01*
X98325000Y-148685000D02*
X101065000Y-148685000D01*
X101065000Y-148685000D02*
X101065000Y-142145000D01*
X99695000Y-141375000D02*
X99695000Y-142145000D01*
X99695000Y-149455000D02*
X99695000Y-148685000D01*
%TO.C,R8*%
X111030000Y-67210000D02*
X111030000Y-69950000D01*
X111030000Y-69950000D02*
X117570000Y-69950000D01*
X117570000Y-69950000D02*
X117570000Y-67210000D01*
X117570000Y-67210000D02*
X111030000Y-67210000D01*
X110260000Y-68580000D02*
X111030000Y-68580000D01*
X118340000Y-68580000D02*
X117570000Y-68580000D01*
%TO.C,R9*%
X123232936Y-67845000D02*
X123687064Y-67845000D01*
X123232936Y-69315000D02*
X123687064Y-69315000D01*
%TO.C,R10*%
X128270000Y-56920000D02*
X128270000Y-57690000D01*
X128270000Y-65000000D02*
X128270000Y-64230000D01*
X126900000Y-57690000D02*
X126900000Y-64230000D01*
X129640000Y-57690000D02*
X126900000Y-57690000D01*
X129640000Y-64230000D02*
X129640000Y-57690000D01*
X126900000Y-64230000D02*
X129640000Y-64230000D01*
%TO.C,R11*%
X134620000Y-65000000D02*
X134620000Y-64230000D01*
X134620000Y-56920000D02*
X134620000Y-57690000D01*
X135990000Y-64230000D02*
X135990000Y-57690000D01*
X133250000Y-64230000D02*
X135990000Y-64230000D01*
X133250000Y-57690000D02*
X133250000Y-64230000D01*
X135990000Y-57690000D02*
X133250000Y-57690000D01*
%TO.C,SW1*%
X135020000Y-74120000D02*
X135020000Y-72620000D01*
X133770000Y-70120000D02*
X129270000Y-70120000D01*
X128020000Y-72620000D02*
X128020000Y-74120000D01*
X129270000Y-76620000D02*
X133770000Y-76620000D01*
%TO.C,U1*%
X133380000Y-122790000D02*
X133380000Y-121530000D01*
X133380000Y-115970000D02*
X133380000Y-117230000D01*
X129620000Y-122790000D02*
X133380000Y-122790000D01*
X127370000Y-115970000D02*
X133380000Y-115970000D01*
%TO.C,U2*%
X114512132Y-97603179D02*
X115441977Y-98533024D01*
X114300000Y-97815311D02*
X114512132Y-97603179D01*
X114087868Y-97603179D02*
X114300000Y-97815311D01*
X109194689Y-92710000D02*
X109406821Y-92497868D01*
X109406821Y-92922132D02*
X109194689Y-92710000D01*
X119405311Y-92710000D02*
X119193179Y-92922132D01*
X119193179Y-92497868D02*
X119405311Y-92710000D01*
X114300000Y-87604689D02*
X114087868Y-87816821D01*
X114512132Y-87816821D02*
X114300000Y-87604689D01*
%TO.C,U3*%
X127370000Y-105810000D02*
X133380000Y-105810000D01*
X129620000Y-112630000D02*
X133380000Y-112630000D01*
X133380000Y-105810000D02*
X133380000Y-107070000D01*
X133380000Y-112630000D02*
X133380000Y-111370000D01*
%TO.C,U4*%
X114665000Y-113605000D02*
G75*
G02*
X112665000Y-113605000I-1000000J0D01*
G01*
X112665000Y-113605000D02*
X111015000Y-113605000D01*
X111015000Y-113605000D02*
X111015000Y-123885000D01*
X111015000Y-123885000D02*
X116315000Y-123885000D01*
X116315000Y-123885000D02*
X116315000Y-113605000D01*
X116315000Y-113605000D02*
X114665000Y-113605000D01*
%TO.C,U5*%
X120710000Y-62340000D02*
X120710000Y-60690000D01*
X110430000Y-62340000D02*
X120710000Y-62340000D01*
X110430000Y-57040000D02*
X110430000Y-62340000D01*
X120710000Y-57040000D02*
X110430000Y-57040000D01*
X120710000Y-58690000D02*
X120710000Y-57040000D01*
X120710000Y-60690000D02*
G75*
G02*
X120710000Y-58690000I0J1000000D01*
G01*
%TO.C,Y1*%
X105082500Y-107960000D02*
X121057500Y-107960000D01*
X105082500Y-102860000D02*
X105082500Y-107960000D01*
X121057500Y-102860000D02*
X105082500Y-102860000D01*
%TO.C,REF\u002A\u002A*%
D10*
X114266666Y-25052380D02*
X113933333Y-24576190D01*
X113695238Y-25052380D02*
X113695238Y-24052380D01*
X114076190Y-24052380D01*
X114171428Y-24100000D01*
X114219047Y-24147619D01*
X114266666Y-24242857D01*
X114266666Y-24385714D01*
X114219047Y-24480952D01*
X114171428Y-24528571D01*
X114076190Y-24576190D01*
X113695238Y-24576190D01*
X114695238Y-24528571D02*
X115028571Y-24528571D01*
X115171428Y-25052380D02*
X114695238Y-25052380D01*
X114695238Y-24052380D01*
X115171428Y-24052380D01*
X115933333Y-24528571D02*
X115600000Y-24528571D01*
X115600000Y-25052380D02*
X115600000Y-24052380D01*
X116076190Y-24052380D01*
X116600000Y-24052380D02*
X116600000Y-24290476D01*
X116361904Y-24195238D02*
X116600000Y-24290476D01*
X116838095Y-24195238D01*
X116457142Y-24480952D02*
X116600000Y-24290476D01*
X116742857Y-24480952D01*
X117361904Y-24052380D02*
X117361904Y-24290476D01*
X117123809Y-24195238D02*
X117361904Y-24290476D01*
X117600000Y-24195238D01*
X117219047Y-24480952D02*
X117361904Y-24290476D01*
X117504761Y-24480952D01*
%TO.C,C1*%
X124857142Y-75666666D02*
X124904761Y-75714285D01*
X124952380Y-75857142D01*
X124952380Y-75952380D01*
X124904761Y-76095238D01*
X124809523Y-76190476D01*
X124714285Y-76238095D01*
X124523809Y-76285714D01*
X124380952Y-76285714D01*
X124190476Y-76238095D01*
X124095238Y-76190476D01*
X124000000Y-76095238D01*
X123952380Y-75952380D01*
X123952380Y-75857142D01*
X124000000Y-75714285D01*
X124047619Y-75666666D01*
X124952380Y-74714285D02*
X124952380Y-75285714D01*
X124952380Y-75000000D02*
X123952380Y-75000000D01*
X124095238Y-75095238D01*
X124190476Y-75190476D01*
X124238095Y-75285714D01*
%TO.C,C2*%
X108015833Y-102367142D02*
X107968214Y-102414761D01*
X107825357Y-102462380D01*
X107730119Y-102462380D01*
X107587261Y-102414761D01*
X107492023Y-102319523D01*
X107444404Y-102224285D01*
X107396785Y-102033809D01*
X107396785Y-101890952D01*
X107444404Y-101700476D01*
X107492023Y-101605238D01*
X107587261Y-101510000D01*
X107730119Y-101462380D01*
X107825357Y-101462380D01*
X107968214Y-101510000D01*
X108015833Y-101557619D01*
X108396785Y-101557619D02*
X108444404Y-101510000D01*
X108539642Y-101462380D01*
X108777738Y-101462380D01*
X108872976Y-101510000D01*
X108920595Y-101557619D01*
X108968214Y-101652857D01*
X108968214Y-101748095D01*
X108920595Y-101890952D01*
X108349166Y-102462380D01*
X108968214Y-102462380D01*
%TO.C,C3*%
X120833333Y-102357142D02*
X120785714Y-102404761D01*
X120642857Y-102452380D01*
X120547619Y-102452380D01*
X120404761Y-102404761D01*
X120309523Y-102309523D01*
X120261904Y-102214285D01*
X120214285Y-102023809D01*
X120214285Y-101880952D01*
X120261904Y-101690476D01*
X120309523Y-101595238D01*
X120404761Y-101500000D01*
X120547619Y-101452380D01*
X120642857Y-101452380D01*
X120785714Y-101500000D01*
X120833333Y-101547619D01*
X121166666Y-101452380D02*
X121785714Y-101452380D01*
X121452380Y-101833333D01*
X121595238Y-101833333D01*
X121690476Y-101880952D01*
X121738095Y-101928571D01*
X121785714Y-102023809D01*
X121785714Y-102261904D01*
X121738095Y-102357142D01*
X121690476Y-102404761D01*
X121595238Y-102452380D01*
X121309523Y-102452380D01*
X121214285Y-102404761D01*
X121166666Y-102357142D01*
%TO.C,C4*%
X126497142Y-123589166D02*
X126544761Y-123636785D01*
X126592380Y-123779642D01*
X126592380Y-123874880D01*
X126544761Y-124017738D01*
X126449523Y-124112976D01*
X126354285Y-124160595D01*
X126163809Y-124208214D01*
X126020952Y-124208214D01*
X125830476Y-124160595D01*
X125735238Y-124112976D01*
X125640000Y-124017738D01*
X125592380Y-123874880D01*
X125592380Y-123779642D01*
X125640000Y-123636785D01*
X125687619Y-123589166D01*
X125925714Y-122732023D02*
X126592380Y-122732023D01*
X125544761Y-122970119D02*
X126259047Y-123208214D01*
X126259047Y-122589166D01*
%TO.C,C5*%
X123137142Y-117666666D02*
X123184761Y-117714285D01*
X123232380Y-117857142D01*
X123232380Y-117952380D01*
X123184761Y-118095238D01*
X123089523Y-118190476D01*
X122994285Y-118238095D01*
X122803809Y-118285714D01*
X122660952Y-118285714D01*
X122470476Y-118238095D01*
X122375238Y-118190476D01*
X122280000Y-118095238D01*
X122232380Y-117952380D01*
X122232380Y-117857142D01*
X122280000Y-117714285D01*
X122327619Y-117666666D01*
X122232380Y-116761904D02*
X122232380Y-117238095D01*
X122708571Y-117285714D01*
X122660952Y-117238095D01*
X122613333Y-117142857D01*
X122613333Y-116904761D01*
X122660952Y-116809523D01*
X122708571Y-116761904D01*
X122803809Y-116714285D01*
X123041904Y-116714285D01*
X123137142Y-116761904D01*
X123184761Y-116809523D01*
X123232380Y-116904761D01*
X123232380Y-117142857D01*
X123184761Y-117238095D01*
X123137142Y-117285714D01*
%TO.C,C6*%
X114365833Y-83767142D02*
X114318214Y-83814761D01*
X114175357Y-83862380D01*
X114080119Y-83862380D01*
X113937261Y-83814761D01*
X113842023Y-83719523D01*
X113794404Y-83624285D01*
X113746785Y-83433809D01*
X113746785Y-83290952D01*
X113794404Y-83100476D01*
X113842023Y-83005238D01*
X113937261Y-82910000D01*
X114080119Y-82862380D01*
X114175357Y-82862380D01*
X114318214Y-82910000D01*
X114365833Y-82957619D01*
X115222976Y-82862380D02*
X115032500Y-82862380D01*
X114937261Y-82910000D01*
X114889642Y-82957619D01*
X114794404Y-83100476D01*
X114746785Y-83290952D01*
X114746785Y-83671904D01*
X114794404Y-83767142D01*
X114842023Y-83814761D01*
X114937261Y-83862380D01*
X115127738Y-83862380D01*
X115222976Y-83814761D01*
X115270595Y-83767142D01*
X115318214Y-83671904D01*
X115318214Y-83433809D01*
X115270595Y-83338571D01*
X115222976Y-83290952D01*
X115127738Y-83243333D01*
X114937261Y-83243333D01*
X114842023Y-83290952D01*
X114794404Y-83338571D01*
X114746785Y-83433809D01*
%TO.C,C7*%
X123137142Y-109386666D02*
X123184761Y-109434285D01*
X123232380Y-109577142D01*
X123232380Y-109672380D01*
X123184761Y-109815238D01*
X123089523Y-109910476D01*
X122994285Y-109958095D01*
X122803809Y-110005714D01*
X122660952Y-110005714D01*
X122470476Y-109958095D01*
X122375238Y-109910476D01*
X122280000Y-109815238D01*
X122232380Y-109672380D01*
X122232380Y-109577142D01*
X122280000Y-109434285D01*
X122327619Y-109386666D01*
X122232380Y-109053333D02*
X122232380Y-108386666D01*
X123232380Y-108815238D01*
%TO.C,C8*%
X113900833Y-102367142D02*
X113853214Y-102414761D01*
X113710357Y-102462380D01*
X113615119Y-102462380D01*
X113472261Y-102414761D01*
X113377023Y-102319523D01*
X113329404Y-102224285D01*
X113281785Y-102033809D01*
X113281785Y-101890952D01*
X113329404Y-101700476D01*
X113377023Y-101605238D01*
X113472261Y-101510000D01*
X113615119Y-101462380D01*
X113710357Y-101462380D01*
X113853214Y-101510000D01*
X113900833Y-101557619D01*
X114472261Y-101890952D02*
X114377023Y-101843333D01*
X114329404Y-101795714D01*
X114281785Y-101700476D01*
X114281785Y-101652857D01*
X114329404Y-101557619D01*
X114377023Y-101510000D01*
X114472261Y-101462380D01*
X114662738Y-101462380D01*
X114757976Y-101510000D01*
X114805595Y-101557619D01*
X114853214Y-101652857D01*
X114853214Y-101700476D01*
X114805595Y-101795714D01*
X114757976Y-101843333D01*
X114662738Y-101890952D01*
X114472261Y-101890952D01*
X114377023Y-101938571D01*
X114329404Y-101986190D01*
X114281785Y-102081428D01*
X114281785Y-102271904D01*
X114329404Y-102367142D01*
X114377023Y-102414761D01*
X114472261Y-102462380D01*
X114662738Y-102462380D01*
X114757976Y-102414761D01*
X114805595Y-102367142D01*
X114853214Y-102271904D01*
X114853214Y-102081428D01*
X114805595Y-101986190D01*
X114757976Y-101938571D01*
X114662738Y-101890952D01*
%TO.C,C9*%
X121833333Y-97857142D02*
X121785714Y-97904761D01*
X121642857Y-97952380D01*
X121547619Y-97952380D01*
X121404761Y-97904761D01*
X121309523Y-97809523D01*
X121261904Y-97714285D01*
X121214285Y-97523809D01*
X121214285Y-97380952D01*
X121261904Y-97190476D01*
X121309523Y-97095238D01*
X121404761Y-97000000D01*
X121547619Y-96952380D01*
X121642857Y-96952380D01*
X121785714Y-97000000D01*
X121833333Y-97047619D01*
X122309523Y-97952380D02*
X122500000Y-97952380D01*
X122595238Y-97904761D01*
X122642857Y-97857142D01*
X122738095Y-97714285D01*
X122785714Y-97523809D01*
X122785714Y-97142857D01*
X122738095Y-97047619D01*
X122690476Y-97000000D01*
X122595238Y-96952380D01*
X122404761Y-96952380D01*
X122309523Y-97000000D01*
X122261904Y-97047619D01*
X122214285Y-97142857D01*
X122214285Y-97380952D01*
X122261904Y-97476190D01*
X122309523Y-97523809D01*
X122404761Y-97571428D01*
X122595238Y-97571428D01*
X122690476Y-97523809D01*
X122738095Y-97476190D01*
X122785714Y-97380952D01*
%TO.C,C10*%
X121857142Y-95357142D02*
X121809523Y-95404761D01*
X121666666Y-95452380D01*
X121571428Y-95452380D01*
X121428571Y-95404761D01*
X121333333Y-95309523D01*
X121285714Y-95214285D01*
X121238095Y-95023809D01*
X121238095Y-94880952D01*
X121285714Y-94690476D01*
X121333333Y-94595238D01*
X121428571Y-94500000D01*
X121571428Y-94452380D01*
X121666666Y-94452380D01*
X121809523Y-94500000D01*
X121857142Y-94547619D01*
X122809523Y-95452380D02*
X122238095Y-95452380D01*
X122523809Y-95452380D02*
X122523809Y-94452380D01*
X122428571Y-94595238D01*
X122333333Y-94690476D01*
X122238095Y-94738095D01*
X123428571Y-94452380D02*
X123523809Y-94452380D01*
X123619047Y-94500000D01*
X123666666Y-94547619D01*
X123714285Y-94642857D01*
X123761904Y-94833333D01*
X123761904Y-95071428D01*
X123714285Y-95261904D01*
X123666666Y-95357142D01*
X123619047Y-95404761D01*
X123523809Y-95452380D01*
X123428571Y-95452380D01*
X123333333Y-95404761D01*
X123285714Y-95357142D01*
X123238095Y-95261904D01*
X123190476Y-95071428D01*
X123190476Y-94833333D01*
X123238095Y-94642857D01*
X123285714Y-94547619D01*
X123333333Y-94500000D01*
X123428571Y-94452380D01*
%TO.C,D1*%
X108552380Y-121388095D02*
X107552380Y-121388095D01*
X107552380Y-121150000D01*
X107600000Y-121007142D01*
X107695238Y-120911904D01*
X107790476Y-120864285D01*
X107980952Y-120816666D01*
X108123809Y-120816666D01*
X108314285Y-120864285D01*
X108409523Y-120911904D01*
X108504761Y-121007142D01*
X108552380Y-121150000D01*
X108552380Y-121388095D01*
X108552380Y-119864285D02*
X108552380Y-120435714D01*
X108552380Y-120150000D02*
X107552380Y-120150000D01*
X107695238Y-120245238D01*
X107790476Y-120340476D01*
X107838095Y-120435714D01*
%TO.C,D2*%
X101672380Y-61698095D02*
X100672380Y-61698095D01*
X100672380Y-61460000D01*
X100720000Y-61317142D01*
X100815238Y-61221904D01*
X100910476Y-61174285D01*
X101100952Y-61126666D01*
X101243809Y-61126666D01*
X101434285Y-61174285D01*
X101529523Y-61221904D01*
X101624761Y-61317142D01*
X101672380Y-61460000D01*
X101672380Y-61698095D01*
X100767619Y-60745714D02*
X100720000Y-60698095D01*
X100672380Y-60602857D01*
X100672380Y-60364761D01*
X100720000Y-60269523D01*
X100767619Y-60221904D01*
X100862857Y-60174285D01*
X100958095Y-60174285D01*
X101100952Y-60221904D01*
X101672380Y-60793333D01*
X101672380Y-60174285D01*
X102392380Y-66301904D02*
X101392380Y-66301904D01*
X102392380Y-65730476D02*
X101820952Y-66159047D01*
X101392380Y-65730476D02*
X101963809Y-66301904D01*
%TO.C,FB1*%
X121666666Y-92428571D02*
X121333333Y-92428571D01*
X121333333Y-92952380D02*
X121333333Y-91952380D01*
X121809523Y-91952380D01*
X122523809Y-92428571D02*
X122666666Y-92476190D01*
X122714285Y-92523809D01*
X122761904Y-92619047D01*
X122761904Y-92761904D01*
X122714285Y-92857142D01*
X122666666Y-92904761D01*
X122571428Y-92952380D01*
X122190476Y-92952380D01*
X122190476Y-91952380D01*
X122523809Y-91952380D01*
X122619047Y-92000000D01*
X122666666Y-92047619D01*
X122714285Y-92142857D01*
X122714285Y-92238095D01*
X122666666Y-92333333D01*
X122619047Y-92380952D01*
X122523809Y-92428571D01*
X122190476Y-92428571D01*
X123714285Y-92952380D02*
X123142857Y-92952380D01*
X123428571Y-92952380D02*
X123428571Y-91952380D01*
X123333333Y-92095238D01*
X123238095Y-92190476D01*
X123142857Y-92238095D01*
%TO.C,J1*%
X105072380Y-133683333D02*
X105786666Y-133683333D01*
X105929523Y-133730952D01*
X106024761Y-133826190D01*
X106072380Y-133969047D01*
X106072380Y-134064285D01*
X106072380Y-132683333D02*
X106072380Y-133254761D01*
X106072380Y-132969047D02*
X105072380Y-132969047D01*
X105215238Y-133064285D01*
X105310476Y-133159523D01*
X105358095Y-133254761D01*
%TO.C,J3*%
X96186666Y-103802380D02*
X96186666Y-104516666D01*
X96139047Y-104659523D01*
X96043809Y-104754761D01*
X95900952Y-104802380D01*
X95805714Y-104802380D01*
X96567619Y-103802380D02*
X97186666Y-103802380D01*
X96853333Y-104183333D01*
X96996190Y-104183333D01*
X97091428Y-104230952D01*
X97139047Y-104278571D01*
X97186666Y-104373809D01*
X97186666Y-104611904D01*
X97139047Y-104707142D01*
X97091428Y-104754761D01*
X96996190Y-104802380D01*
X96710476Y-104802380D01*
X96615238Y-104754761D01*
X96567619Y-104707142D01*
%TO.C,J4*%
X96186666Y-116502380D02*
X96186666Y-117216666D01*
X96139047Y-117359523D01*
X96043809Y-117454761D01*
X95900952Y-117502380D01*
X95805714Y-117502380D01*
X97091428Y-116835714D02*
X97091428Y-117502380D01*
X96853333Y-116454761D02*
X96615238Y-117169047D01*
X97234285Y-117169047D01*
%TO.C,J5*%
X96186666Y-79672380D02*
X96186666Y-80386666D01*
X96139047Y-80529523D01*
X96043809Y-80624761D01*
X95900952Y-80672380D01*
X95805714Y-80672380D01*
X97139047Y-79672380D02*
X96662857Y-79672380D01*
X96615238Y-80148571D01*
X96662857Y-80100952D01*
X96758095Y-80053333D01*
X96996190Y-80053333D01*
X97091428Y-80100952D01*
X97139047Y-80148571D01*
X97186666Y-80243809D01*
X97186666Y-80481904D01*
X97139047Y-80577142D01*
X97091428Y-80624761D01*
X96996190Y-80672380D01*
X96758095Y-80672380D01*
X96662857Y-80624761D01*
X96615238Y-80577142D01*
%TO.C,J6*%
X132381666Y-79672380D02*
X132381666Y-80386666D01*
X132334047Y-80529523D01*
X132238809Y-80624761D01*
X132095952Y-80672380D01*
X132000714Y-80672380D01*
X133286428Y-79672380D02*
X133095952Y-79672380D01*
X133000714Y-79720000D01*
X132953095Y-79767619D01*
X132857857Y-79910476D01*
X132810238Y-80100952D01*
X132810238Y-80481904D01*
X132857857Y-80577142D01*
X132905476Y-80624761D01*
X133000714Y-80672380D01*
X133191190Y-80672380D01*
X133286428Y-80624761D01*
X133334047Y-80577142D01*
X133381666Y-80481904D01*
X133381666Y-80243809D01*
X133334047Y-80148571D01*
X133286428Y-80100952D01*
X133191190Y-80053333D01*
X133000714Y-80053333D01*
X132905476Y-80100952D01*
X132857857Y-80148571D01*
X132810238Y-80243809D01*
%TO.C,J7*%
X98722380Y-76533333D02*
X99436666Y-76533333D01*
X99579523Y-76580952D01*
X99674761Y-76676190D01*
X99722380Y-76819047D01*
X99722380Y-76914285D01*
X98722380Y-76152380D02*
X98722380Y-75485714D01*
X99722380Y-75914285D01*
%TO.C,J8*%
X105072380Y-129238333D02*
X105786666Y-129238333D01*
X105929523Y-129285952D01*
X106024761Y-129381190D01*
X106072380Y-129524047D01*
X106072380Y-129619285D01*
X105500952Y-128619285D02*
X105453333Y-128714523D01*
X105405714Y-128762142D01*
X105310476Y-128809761D01*
X105262857Y-128809761D01*
X105167619Y-128762142D01*
X105120000Y-128714523D01*
X105072380Y-128619285D01*
X105072380Y-128428809D01*
X105120000Y-128333571D01*
X105167619Y-128285952D01*
X105262857Y-128238333D01*
X105310476Y-128238333D01*
X105405714Y-128285952D01*
X105453333Y-128333571D01*
X105500952Y-128428809D01*
X105500952Y-128619285D01*
X105548571Y-128714523D01*
X105596190Y-128762142D01*
X105691428Y-128809761D01*
X105881904Y-128809761D01*
X105977142Y-128762142D01*
X106024761Y-128714523D01*
X106072380Y-128619285D01*
X106072380Y-128428809D01*
X106024761Y-128333571D01*
X105977142Y-128285952D01*
X105881904Y-128238333D01*
X105691428Y-128238333D01*
X105596190Y-128285952D01*
X105548571Y-128333571D01*
X105500952Y-128428809D01*
%TO.C,J9*%
X119461666Y-139597380D02*
X119461666Y-140311666D01*
X119414047Y-140454523D01*
X119318809Y-140549761D01*
X119175952Y-140597380D01*
X119080714Y-140597380D01*
X119985476Y-140597380D02*
X120175952Y-140597380D01*
X120271190Y-140549761D01*
X120318809Y-140502142D01*
X120414047Y-140359285D01*
X120461666Y-140168809D01*
X120461666Y-139787857D01*
X120414047Y-139692619D01*
X120366428Y-139645000D01*
X120271190Y-139597380D01*
X120080714Y-139597380D01*
X119985476Y-139645000D01*
X119937857Y-139692619D01*
X119890238Y-139787857D01*
X119890238Y-140025952D01*
X119937857Y-140121190D01*
X119985476Y-140168809D01*
X120080714Y-140216428D01*
X120271190Y-140216428D01*
X120366428Y-140168809D01*
X120414047Y-140121190D01*
X120461666Y-140025952D01*
%TO.C,J10*%
X135715476Y-137457380D02*
X135715476Y-138171666D01*
X135667857Y-138314523D01*
X135572619Y-138409761D01*
X135429761Y-138457380D01*
X135334523Y-138457380D01*
X136715476Y-138457380D02*
X136144047Y-138457380D01*
X136429761Y-138457380D02*
X136429761Y-137457380D01*
X136334523Y-137600238D01*
X136239285Y-137695476D01*
X136144047Y-137743095D01*
X137334523Y-137457380D02*
X137429761Y-137457380D01*
X137525000Y-137505000D01*
X137572619Y-137552619D01*
X137620238Y-137647857D01*
X137667857Y-137838333D01*
X137667857Y-138076428D01*
X137620238Y-138266904D01*
X137572619Y-138362142D01*
X137525000Y-138409761D01*
X137429761Y-138457380D01*
X137334523Y-138457380D01*
X137239285Y-138409761D01*
X137191666Y-138362142D01*
X137144047Y-138266904D01*
X137096428Y-138076428D01*
X137096428Y-137838333D01*
X137144047Y-137647857D01*
X137191666Y-137552619D01*
X137239285Y-137505000D01*
X137334523Y-137457380D01*
%TO.C,J11*%
D14*
X93766285Y-30164688D02*
X93766285Y-31253260D01*
X93693714Y-31470974D01*
X93548571Y-31616117D01*
X93330857Y-31688688D01*
X93185714Y-31688688D01*
X95290285Y-31688688D02*
X94419428Y-31688688D01*
X94854857Y-31688688D02*
X94854857Y-30164688D01*
X94709714Y-30382402D01*
X94564571Y-30527545D01*
X94419428Y-30600117D01*
X96741714Y-31688688D02*
X95870857Y-31688688D01*
X96306285Y-31688688D02*
X96306285Y-30164688D01*
X96161142Y-30382402D01*
X96016000Y-30527545D01*
X95870857Y-30600117D01*
%TO.C,J12*%
D10*
X102475476Y-139597380D02*
X102475476Y-140311666D01*
X102427857Y-140454523D01*
X102332619Y-140549761D01*
X102189761Y-140597380D01*
X102094523Y-140597380D01*
X103475476Y-140597380D02*
X102904047Y-140597380D01*
X103189761Y-140597380D02*
X103189761Y-139597380D01*
X103094523Y-139740238D01*
X102999285Y-139835476D01*
X102904047Y-139883095D01*
X103856428Y-139692619D02*
X103904047Y-139645000D01*
X103999285Y-139597380D01*
X104237380Y-139597380D01*
X104332619Y-139645000D01*
X104380238Y-139692619D01*
X104427857Y-139787857D01*
X104427857Y-139883095D01*
X104380238Y-140025952D01*
X103808809Y-140597380D01*
X104427857Y-140597380D01*
%TO.C,J13*%
X93805476Y-137457380D02*
X93805476Y-138171666D01*
X93757857Y-138314523D01*
X93662619Y-138409761D01*
X93519761Y-138457380D01*
X93424523Y-138457380D01*
X94805476Y-138457380D02*
X94234047Y-138457380D01*
X94519761Y-138457380D02*
X94519761Y-137457380D01*
X94424523Y-137600238D01*
X94329285Y-137695476D01*
X94234047Y-137743095D01*
X95138809Y-137457380D02*
X95757857Y-137457380D01*
X95424523Y-137838333D01*
X95567380Y-137838333D01*
X95662619Y-137885952D01*
X95710238Y-137933571D01*
X95757857Y-138028809D01*
X95757857Y-138266904D01*
X95710238Y-138362142D01*
X95662619Y-138409761D01*
X95567380Y-138457380D01*
X95281666Y-138457380D01*
X95186428Y-138409761D01*
X95138809Y-138362142D01*
%TO.C,J14*%
D14*
X134766285Y-30165428D02*
X134766285Y-31254000D01*
X134693714Y-31471714D01*
X134548571Y-31616857D01*
X134330857Y-31689428D01*
X134185714Y-31689428D01*
X136290285Y-31689428D02*
X135419428Y-31689428D01*
X135854857Y-31689428D02*
X135854857Y-30165428D01*
X135709714Y-30383142D01*
X135564571Y-30528285D01*
X135419428Y-30600857D01*
X137596571Y-30673428D02*
X137596571Y-31689428D01*
X137233714Y-30092857D02*
X136870857Y-31181428D01*
X137814285Y-31181428D01*
%TO.C,J15*%
D10*
X130635476Y-124682380D02*
X130635476Y-125396666D01*
X130587857Y-125539523D01*
X130492619Y-125634761D01*
X130349761Y-125682380D01*
X130254523Y-125682380D01*
X131635476Y-125682380D02*
X131064047Y-125682380D01*
X131349761Y-125682380D02*
X131349761Y-124682380D01*
X131254523Y-124825238D01*
X131159285Y-124920476D01*
X131064047Y-124968095D01*
X132540238Y-124682380D02*
X132064047Y-124682380D01*
X132016428Y-125158571D01*
X132064047Y-125110952D01*
X132159285Y-125063333D01*
X132397380Y-125063333D01*
X132492619Y-125110952D01*
X132540238Y-125158571D01*
X132587857Y-125253809D01*
X132587857Y-125491904D01*
X132540238Y-125587142D01*
X132492619Y-125634761D01*
X132397380Y-125682380D01*
X132159285Y-125682380D01*
X132064047Y-125634761D01*
X132016428Y-125587142D01*
%TO.C,R1*%
X105692380Y-110656666D02*
X105216190Y-110990000D01*
X105692380Y-111228095D02*
X104692380Y-111228095D01*
X104692380Y-110847142D01*
X104740000Y-110751904D01*
X104787619Y-110704285D01*
X104882857Y-110656666D01*
X105025714Y-110656666D01*
X105120952Y-110704285D01*
X105168571Y-110751904D01*
X105216190Y-110847142D01*
X105216190Y-111228095D01*
X105692380Y-109704285D02*
X105692380Y-110275714D01*
X105692380Y-109990000D02*
X104692380Y-109990000D01*
X104835238Y-110085238D01*
X104930476Y-110180476D01*
X104978095Y-110275714D01*
%TO.C,R2*%
X134267380Y-145581666D02*
X133791190Y-145915000D01*
X134267380Y-146153095D02*
X133267380Y-146153095D01*
X133267380Y-145772142D01*
X133315000Y-145676904D01*
X133362619Y-145629285D01*
X133457857Y-145581666D01*
X133600714Y-145581666D01*
X133695952Y-145629285D01*
X133743571Y-145676904D01*
X133791190Y-145772142D01*
X133791190Y-146153095D01*
X133362619Y-145200714D02*
X133315000Y-145153095D01*
X133267380Y-145057857D01*
X133267380Y-144819761D01*
X133315000Y-144724523D01*
X133362619Y-144676904D01*
X133457857Y-144629285D01*
X133553095Y-144629285D01*
X133695952Y-144676904D01*
X134267380Y-145248333D01*
X134267380Y-144629285D01*
%TO.C,R3*%
X112593333Y-109452380D02*
X112260000Y-108976190D01*
X112021904Y-109452380D02*
X112021904Y-108452380D01*
X112402857Y-108452380D01*
X112498095Y-108500000D01*
X112545714Y-108547619D01*
X112593333Y-108642857D01*
X112593333Y-108785714D01*
X112545714Y-108880952D01*
X112498095Y-108928571D01*
X112402857Y-108976190D01*
X112021904Y-108976190D01*
X112926666Y-108452380D02*
X113545714Y-108452380D01*
X113212380Y-108833333D01*
X113355238Y-108833333D01*
X113450476Y-108880952D01*
X113498095Y-108928571D01*
X113545714Y-109023809D01*
X113545714Y-109261904D01*
X113498095Y-109357142D01*
X113450476Y-109404761D01*
X113355238Y-109452380D01*
X113069523Y-109452380D01*
X112974285Y-109404761D01*
X112926666Y-109357142D01*
%TO.C,R4*%
X99342380Y-61126666D02*
X98866190Y-61460000D01*
X99342380Y-61698095D02*
X98342380Y-61698095D01*
X98342380Y-61317142D01*
X98390000Y-61221904D01*
X98437619Y-61174285D01*
X98532857Y-61126666D01*
X98675714Y-61126666D01*
X98770952Y-61174285D01*
X98818571Y-61221904D01*
X98866190Y-61317142D01*
X98866190Y-61698095D01*
X98675714Y-60269523D02*
X99342380Y-60269523D01*
X98294761Y-60507619D02*
X99009047Y-60745714D01*
X99009047Y-60126666D01*
%TO.C,R5*%
X120552380Y-125166666D02*
X120076190Y-125500000D01*
X120552380Y-125738095D02*
X119552380Y-125738095D01*
X119552380Y-125357142D01*
X119600000Y-125261904D01*
X119647619Y-125214285D01*
X119742857Y-125166666D01*
X119885714Y-125166666D01*
X119980952Y-125214285D01*
X120028571Y-125261904D01*
X120076190Y-125357142D01*
X120076190Y-125738095D01*
X119552380Y-124261904D02*
X119552380Y-124738095D01*
X120028571Y-124785714D01*
X119980952Y-124738095D01*
X119933333Y-124642857D01*
X119933333Y-124404761D01*
X119980952Y-124309523D01*
X120028571Y-124261904D01*
X120123809Y-124214285D01*
X120361904Y-124214285D01*
X120457142Y-124261904D01*
X120504761Y-124309523D01*
X120552380Y-124404761D01*
X120552380Y-124642857D01*
X120504761Y-124738095D01*
X120457142Y-124785714D01*
%TO.C,R6*%
X120552380Y-120916666D02*
X120076190Y-121250000D01*
X120552380Y-121488095D02*
X119552380Y-121488095D01*
X119552380Y-121107142D01*
X119600000Y-121011904D01*
X119647619Y-120964285D01*
X119742857Y-120916666D01*
X119885714Y-120916666D01*
X119980952Y-120964285D01*
X120028571Y-121011904D01*
X120076190Y-121107142D01*
X120076190Y-121488095D01*
X119552380Y-120059523D02*
X119552380Y-120250000D01*
X119600000Y-120345238D01*
X119647619Y-120392857D01*
X119790476Y-120488095D01*
X119980952Y-120535714D01*
X120361904Y-120535714D01*
X120457142Y-120488095D01*
X120504761Y-120440476D01*
X120552380Y-120345238D01*
X120552380Y-120154761D01*
X120504761Y-120059523D01*
X120457142Y-120011904D01*
X120361904Y-119964285D01*
X120123809Y-119964285D01*
X120028571Y-120011904D01*
X119980952Y-120059523D01*
X119933333Y-120154761D01*
X119933333Y-120345238D01*
X119980952Y-120440476D01*
X120028571Y-120488095D01*
X120123809Y-120535714D01*
%TO.C,R7*%
X102517380Y-145581666D02*
X102041190Y-145915000D01*
X102517380Y-146153095D02*
X101517380Y-146153095D01*
X101517380Y-145772142D01*
X101565000Y-145676904D01*
X101612619Y-145629285D01*
X101707857Y-145581666D01*
X101850714Y-145581666D01*
X101945952Y-145629285D01*
X101993571Y-145676904D01*
X102041190Y-145772142D01*
X102041190Y-146153095D01*
X101517380Y-145248333D02*
X101517380Y-144581666D01*
X102517380Y-145010238D01*
%TO.C,R8*%
X114133333Y-66662380D02*
X113800000Y-66186190D01*
X113561904Y-66662380D02*
X113561904Y-65662380D01*
X113942857Y-65662380D01*
X114038095Y-65710000D01*
X114085714Y-65757619D01*
X114133333Y-65852857D01*
X114133333Y-65995714D01*
X114085714Y-66090952D01*
X114038095Y-66138571D01*
X113942857Y-66186190D01*
X113561904Y-66186190D01*
X114704761Y-66090952D02*
X114609523Y-66043333D01*
X114561904Y-65995714D01*
X114514285Y-65900476D01*
X114514285Y-65852857D01*
X114561904Y-65757619D01*
X114609523Y-65710000D01*
X114704761Y-65662380D01*
X114895238Y-65662380D01*
X114990476Y-65710000D01*
X115038095Y-65757619D01*
X115085714Y-65852857D01*
X115085714Y-65900476D01*
X115038095Y-65995714D01*
X114990476Y-66043333D01*
X114895238Y-66090952D01*
X114704761Y-66090952D01*
X114609523Y-66138571D01*
X114561904Y-66186190D01*
X114514285Y-66281428D01*
X114514285Y-66471904D01*
X114561904Y-66567142D01*
X114609523Y-66614761D01*
X114704761Y-66662380D01*
X114895238Y-66662380D01*
X114990476Y-66614761D01*
X115038095Y-66567142D01*
X115085714Y-66471904D01*
X115085714Y-66281428D01*
X115038095Y-66186190D01*
X114990476Y-66138571D01*
X114895238Y-66090952D01*
%TO.C,R9*%
X123293333Y-67382380D02*
X122960000Y-66906190D01*
X122721904Y-67382380D02*
X122721904Y-66382380D01*
X123102857Y-66382380D01*
X123198095Y-66430000D01*
X123245714Y-66477619D01*
X123293333Y-66572857D01*
X123293333Y-66715714D01*
X123245714Y-66810952D01*
X123198095Y-66858571D01*
X123102857Y-66906190D01*
X122721904Y-66906190D01*
X123769523Y-67382380D02*
X123960000Y-67382380D01*
X124055238Y-67334761D01*
X124102857Y-67287142D01*
X124198095Y-67144285D01*
X124245714Y-66953809D01*
X124245714Y-66572857D01*
X124198095Y-66477619D01*
X124150476Y-66430000D01*
X124055238Y-66382380D01*
X123864761Y-66382380D01*
X123769523Y-66430000D01*
X123721904Y-66477619D01*
X123674285Y-66572857D01*
X123674285Y-66810952D01*
X123721904Y-66906190D01*
X123769523Y-66953809D01*
X123864761Y-67001428D01*
X124055238Y-67001428D01*
X124150476Y-66953809D01*
X124198095Y-66906190D01*
X124245714Y-66810952D01*
%TO.C,R10*%
X126352380Y-61602857D02*
X125876190Y-61936190D01*
X126352380Y-62174285D02*
X125352380Y-62174285D01*
X125352380Y-61793333D01*
X125400000Y-61698095D01*
X125447619Y-61650476D01*
X125542857Y-61602857D01*
X125685714Y-61602857D01*
X125780952Y-61650476D01*
X125828571Y-61698095D01*
X125876190Y-61793333D01*
X125876190Y-62174285D01*
X126352380Y-60650476D02*
X126352380Y-61221904D01*
X126352380Y-60936190D02*
X125352380Y-60936190D01*
X125495238Y-61031428D01*
X125590476Y-61126666D01*
X125638095Y-61221904D01*
X125352380Y-60031428D02*
X125352380Y-59936190D01*
X125400000Y-59840952D01*
X125447619Y-59793333D01*
X125542857Y-59745714D01*
X125733333Y-59698095D01*
X125971428Y-59698095D01*
X126161904Y-59745714D01*
X126257142Y-59793333D01*
X126304761Y-59840952D01*
X126352380Y-59936190D01*
X126352380Y-60031428D01*
X126304761Y-60126666D01*
X126257142Y-60174285D01*
X126161904Y-60221904D01*
X125971428Y-60269523D01*
X125733333Y-60269523D01*
X125542857Y-60221904D01*
X125447619Y-60174285D01*
X125400000Y-60126666D01*
X125352380Y-60031428D01*
%TO.C,R11*%
X137442380Y-61602857D02*
X136966190Y-61936190D01*
X137442380Y-62174285D02*
X136442380Y-62174285D01*
X136442380Y-61793333D01*
X136490000Y-61698095D01*
X136537619Y-61650476D01*
X136632857Y-61602857D01*
X136775714Y-61602857D01*
X136870952Y-61650476D01*
X136918571Y-61698095D01*
X136966190Y-61793333D01*
X136966190Y-62174285D01*
X137442380Y-60650476D02*
X137442380Y-61221904D01*
X137442380Y-60936190D02*
X136442380Y-60936190D01*
X136585238Y-61031428D01*
X136680476Y-61126666D01*
X136728095Y-61221904D01*
X137442380Y-59698095D02*
X137442380Y-60269523D01*
X137442380Y-59983809D02*
X136442380Y-59983809D01*
X136585238Y-60079047D01*
X136680476Y-60174285D01*
X136728095Y-60269523D01*
%TO.C,SW1*%
X130186666Y-69524761D02*
X130329523Y-69572380D01*
X130567619Y-69572380D01*
X130662857Y-69524761D01*
X130710476Y-69477142D01*
X130758095Y-69381904D01*
X130758095Y-69286666D01*
X130710476Y-69191428D01*
X130662857Y-69143809D01*
X130567619Y-69096190D01*
X130377142Y-69048571D01*
X130281904Y-69000952D01*
X130234285Y-68953333D01*
X130186666Y-68858095D01*
X130186666Y-68762857D01*
X130234285Y-68667619D01*
X130281904Y-68620000D01*
X130377142Y-68572380D01*
X130615238Y-68572380D01*
X130758095Y-68620000D01*
X131091428Y-68572380D02*
X131329523Y-69572380D01*
X131520000Y-68858095D01*
X131710476Y-69572380D01*
X131948571Y-68572380D01*
X132853333Y-69572380D02*
X132281904Y-69572380D01*
X132567619Y-69572380D02*
X132567619Y-68572380D01*
X132472380Y-68715238D01*
X132377142Y-68810476D01*
X132281904Y-68858095D01*
%TO.C,U1*%
X130708095Y-114332380D02*
X130708095Y-115141904D01*
X130755714Y-115237142D01*
X130803333Y-115284761D01*
X130898571Y-115332380D01*
X131089047Y-115332380D01*
X131184285Y-115284761D01*
X131231904Y-115237142D01*
X131279523Y-115141904D01*
X131279523Y-114332380D01*
X132279523Y-115332380D02*
X131708095Y-115332380D01*
X131993809Y-115332380D02*
X131993809Y-114332380D01*
X131898571Y-114475238D01*
X131803333Y-114570476D01*
X131708095Y-114618095D01*
%TO.C,U2*%
X109990689Y-95941814D02*
X109418269Y-96514234D01*
X109384597Y-96615249D01*
X109384597Y-96682593D01*
X109418269Y-96783608D01*
X109552956Y-96918295D01*
X109653971Y-96951967D01*
X109721315Y-96951967D01*
X109822330Y-96918295D01*
X110394750Y-96345875D01*
X110630452Y-96716265D02*
X110697795Y-96716265D01*
X110798811Y-96749936D01*
X110967169Y-96918295D01*
X111000841Y-97019310D01*
X111000841Y-97086654D01*
X110967169Y-97187669D01*
X110899826Y-97255013D01*
X110765139Y-97322356D01*
X109957017Y-97322356D01*
X110394750Y-97760089D01*
%TO.C,U3*%
X130708095Y-104172380D02*
X130708095Y-104981904D01*
X130755714Y-105077142D01*
X130803333Y-105124761D01*
X130898571Y-105172380D01*
X131089047Y-105172380D01*
X131184285Y-105124761D01*
X131231904Y-105077142D01*
X131279523Y-104981904D01*
X131279523Y-104172380D01*
X131660476Y-104172380D02*
X132279523Y-104172380D01*
X131946190Y-104553333D01*
X132089047Y-104553333D01*
X132184285Y-104600952D01*
X132231904Y-104648571D01*
X132279523Y-104743809D01*
X132279523Y-104981904D01*
X132231904Y-105077142D01*
X132184285Y-105124761D01*
X132089047Y-105172380D01*
X131803333Y-105172380D01*
X131708095Y-105124761D01*
X131660476Y-105077142D01*
%TO.C,U4*%
X112903095Y-112057380D02*
X112903095Y-112866904D01*
X112950714Y-112962142D01*
X112998333Y-113009761D01*
X113093571Y-113057380D01*
X113284047Y-113057380D01*
X113379285Y-113009761D01*
X113426904Y-112962142D01*
X113474523Y-112866904D01*
X113474523Y-112057380D01*
X114379285Y-112390714D02*
X114379285Y-113057380D01*
X114141190Y-112009761D02*
X113903095Y-112724047D01*
X114522142Y-112724047D01*
%TO.C,U5*%
X121162380Y-60451904D02*
X121971904Y-60451904D01*
X122067142Y-60404285D01*
X122114761Y-60356666D01*
X122162380Y-60261428D01*
X122162380Y-60070952D01*
X122114761Y-59975714D01*
X122067142Y-59928095D01*
X121971904Y-59880476D01*
X121162380Y-59880476D01*
X121162380Y-58928095D02*
X121162380Y-59404285D01*
X121638571Y-59451904D01*
X121590952Y-59404285D01*
X121543333Y-59309047D01*
X121543333Y-59070952D01*
X121590952Y-58975714D01*
X121638571Y-58928095D01*
X121733809Y-58880476D01*
X121971904Y-58880476D01*
X122067142Y-58928095D01*
X122114761Y-58975714D01*
X122162380Y-59070952D01*
X122162380Y-59309047D01*
X122114761Y-59404285D01*
X122067142Y-59451904D01*
%TO.C,Y1*%
X117023809Y-101976190D02*
X117023809Y-102452380D01*
X116690476Y-101452380D02*
X117023809Y-101976190D01*
X117357142Y-101452380D01*
X118214285Y-102452380D02*
X117642857Y-102452380D01*
X117928571Y-102452380D02*
X117928571Y-101452380D01*
X117833333Y-101595238D01*
X117738095Y-101690476D01*
X117642857Y-101738095D01*
%TD*%
M02*
